<svg xmlns="http://www.w3.org/2000/svg" xmlns:xlink="http://www.w3.org/1999/xlink" viewBox="0 0 199.38 40.64">
  <title>RISE19</title>
  <g fill="#fff">
    <path d="M-70.92-347.31" transform="translate(-0.2 -4.68)"/>
    <path d="M18,4.72c3.29,0,7.5.49,10.73,3.59a12.8,12.8,0,0,1,3.75,9.12A11.24,11.24,0,0,1,29,25.88a12.67,12.67,0,0,1-6.06,2.79l13.76,16.6H22.52L11.59,29.71V45.28H.2V4.72ZM11.59,22.9h2.17c1.71,0,4.15-.43,5.53-1.64a4.85,4.85,0,0,0,1.45-3.41,4.61,4.61,0,0,0-1.51-3.4c-1.05-1-3-1.58-5.47-1.58H11.59Z" transform="translate(-0.2 -4.68)"/>
    <path d="M53.14,4.72V45.28H41.75V4.72Z" transform="translate(-0.2 -4.68)"/>
    <path d="M62.88,32.77a15.29,15.29,0,0,0,9.64,4,5.78,5.78,0,0,0,4.22-1.34,3.33,3.33,0,0,0,1.07-2.44,3,3,0,0,0-1.2-2.33c-1.07-.87-2.71-1.28-5.42-2l-2.83-.82a14.07,14.07,0,0,1-6-3.15,9.27,9.27,0,0,1-2.39-6.87,12.21,12.21,0,0,1,3.84-9.37c2.14-2,5.67-3.67,10.77-3.67a31.47,31.47,0,0,1,13,3.14l-4.35,7.86A11.66,11.66,0,0,0,76,13.1a5.53,5.53,0,0,0-3.59,1.16,2.79,2.79,0,0,0-1.07,2.09,2.47,2.47,0,0,0,.57,1.75c.31.35,1.07,1,3.65,1.74l3.34.93c2.65.75,5.42,1.63,7.62,3.84a8.77,8.77,0,0,1,2.71,6.93,12.59,12.59,0,0,1-4,9.78c-3.59,3.32-7.94,4-12.41,4A24.15,24.15,0,0,1,64.58,44a30.45,30.45,0,0,1-6.36-3.09Z" transform="translate(-0.2 -4.68)"/>
    <path d="M119.25,13.66H105.68v6.75h12.84v8.94H105.68v7h13.56v8.94H94.3V4.72h24.95Z" transform="translate(-0.2 -4.68)"/>
    <path d="M150.57,13.66H144.9V4.72h16V45.28H150.57Z" transform="translate(-0.2 -4.68)"/>
    <path d="M173.67,45.32l11-13.4a10.11,10.11,0,0,1-5.17,1.25,11.91,11.91,0,0,1-8.89-3.64,13.33,13.33,0,0,1-3.89-9.59A14.81,14.81,0,0,1,170.6,9.69c2.27-2.38,6.21-5,12.72-5,7.15,0,10.92,3.16,12.43,4.71a14.27,14.27,0,0,1,3.84,9.83c0,6-3.54,11.5-5.86,14.6l-8.65,11.5ZM179,14.75A6.63,6.63,0,0,0,177,19.28a6.19,6.19,0,0,0,1.86,4.29,6.67,6.67,0,0,0,4.53,1.79,6.58,6.58,0,0,0,4.36-1.67,6.79,6.79,0,0,0,2-4.53A6.86,6.86,0,0,0,188,14.75a6.79,6.79,0,0,0-4.53-1.91A6.14,6.14,0,0,0,179,14.75Z" transform="translate(-0.2 -4.68)"/>
  </g>
</svg>